<svg xmlns="http://www.w3.org/2000/svg" width="16.495" height="19.595" viewBox="0 0 16.495 19.595">
  <path id="book" d="M3.062,15H13.433a3.065,3.065,0,0,0,3.062-3.062V3.062A3.065,3.065,0,0,0,13.433,0H3.062A3.065,3.065,0,0,0,0,3.062V16.533a3.065,3.065,0,0,0,3.062,3.062H13.433a3.065,3.065,0,0,0,3.062-3.062.765.765,0,1,0-1.531,0,1.533,1.533,0,0,1-1.531,1.531H3.062a1.531,1.531,0,0,1,0-3.062ZM1.531,3.062A1.533,1.533,0,0,1,3.062,1.531H13.433a1.533,1.533,0,0,1,1.531,1.531V11.94a1.533,1.533,0,0,1-1.531,1.531H3.062a3.043,3.043,0,0,0-1.531.411Zm3.1,2.1A.765.765,0,0,1,5.4,4.4h5.741a.765.765,0,0,1,0,1.531H5.4A.765.765,0,0,1,4.631,5.167Zm0,0" fill="#ecb7bf"/>
</svg>
