<svg xmlns="http://www.w3.org/2000/svg" width="30" height="30" viewBox="0 0 30 30">
  <g id="contact" transform="translate(-17 -14.942)">
    <rect id="bg" width="30" height="30" rx="10" transform="translate(17 14.942)" fill="#c99200"/>
    <path id="Op_component_3" data-name="Op component 3" d="M1520.888,610.572a2.178,2.178,0,0,0-1.873-2.2,8.607,8.607,0,0,1-1.887-.47,2.176,2.176,0,0,0-2.3.491l-.523.524a10.892,10.892,0,0,1-3.329-3.331l.521-.521a2.182,2.182,0,0,0,.493-2.3,8.61,8.61,0,0,1-.468-1.88,2.18,2.18,0,0,0-2.178-1.881h-2.171a2.179,2.179,0,0,0-2.168,2.375,15.118,15.118,0,0,0,2.342,6.627,14.878,14.878,0,0,0,4.575,4.576,15.076,15.076,0,0,0,6.575,2.339,2.178,2.178,0,0,0,2.387-2.178Z" transform="translate(-1481 -577.058)" fill="#fff"/>
  </g>
</svg>
