<svg xmlns="http://www.w3.org/2000/svg" width="15.999" height="17.6" viewBox="0 0 15.999 17.6">
  <path id="delete" d="M394,101.6a2.4,2.4,0,0,1-2.4-2.4V88.8h-.8a.8.8,0,1,1,0-1.6H394v-.8a2.4,2.4,0,0,1,2.4-2.4h3.2a2.4,2.4,0,0,1,2.4,2.4v.8h3.2a.8.8,0,0,1,0,1.6h-.8V99.2a2.4,2.4,0,0,1-2.4,2.4Zm-.8-2.4a.8.8,0,0,0,.8.8h8a.8.8,0,0,0,.8-.8V88.8h-9.6Zm7.2-12v-.8a.8.8,0,0,0-.8-.8h-3.2a.8.8,0,0,0-.8.8v.8Zm-1.6,9.6V92a.8.8,0,1,1,1.6,0v4.8a.8.8,0,1,1-1.6,0Zm-3.2,0V92a.8.8,0,1,1,1.6,0v4.8a.8.8,0,1,1-1.6,0Z" transform="translate(-390 -84)" fill="#ecb7bf"/>
</svg>
