<svg xmlns="http://www.w3.org/2000/svg" width="18" height="14.727" viewBox="0 0 18 14.727">
  <path id="email" d="M694.454,271.727A2.457,2.457,0,0,1,692,269.273v-9.81c0-.008,0-.016,0-.024A2.458,2.458,0,0,1,694.454,257h13.091A2.458,2.458,0,0,1,710,259.438c0,.008,0,.016,0,.024v9.811a2.457,2.457,0,0,1-2.454,2.454Zm-.818-2.454a.819.819,0,0,0,.818.818h13.091a.819.819,0,0,0,.818-.818v-8.247l-6.895,4.826a.817.817,0,0,1-.938,0l-6.895-4.826Zm7.364-5.09,7.278-5.094a.819.819,0,0,0-.732-.453H694.454a.819.819,0,0,0-.732.453Z" transform="translate(-692 -257)" fill="#5b5b5b"/>
</svg>
