<svg id="Group_42" data-name="Group 42" xmlns="http://www.w3.org/2000/svg" xmlns:xlink="http://www.w3.org/1999/xlink" width="40" height="40" viewBox="0 0 40 40">
  <defs>
    <clipPath id="clip-path">
      <rect id="Rectangle_41" data-name="Rectangle 41" width="40" height="40" fill="#c99200"/>
    </clipPath>
  </defs>
  <g id="Group_41" data-name="Group 41" clip-path="url(#clip-path)">
    <path id="Path_2067" data-name="Path 2067" d="M275.243,255.021a2.878,2.878,0,0,0-1.6-4.907l-9.711-1.412a1.278,1.278,0,0,1-.957-.695l-4.341-8.8a2.878,2.878,0,0,0-5.162,0l-4.341,8.8a1.268,1.268,0,0,1-.957.695l-9.711,1.412a2.875,2.875,0,0,0-1.6,4.907l7.028,6.847a1.276,1.276,0,0,1,.364,1.126l-1.659,9.672a2.83,2.83,0,0,0,.628,2.333,2.9,2.9,0,0,0,3.549.7l8.684-4.565a1.3,1.3,0,0,1,1.184,0l8.688,4.565a2.828,2.828,0,0,0,1.337.337A2.881,2.881,0,0,0,268.882,275a2.827,2.827,0,0,0,.628-2.333l-1.659-9.672a1.276,1.276,0,0,1,.364-1.126Zm0,0" transform="translate(-236 -236.998)" fill="#c99200"/>
  </g>
</svg>
