<svg xmlns="http://www.w3.org/2000/svg" width="30" height="30" viewBox="0 0 30 30">
  <g id="faq" transform="translate(-17 -14.942)">
    <rect id="bg" width="30" height="30" rx="10" transform="translate(17 14.942)" fill="#c99200"/>
    <g id="conversation-questions" transform="translate(22.189 20.748)">
      <path id="Path_2098" data-name="Path 2098" d="M10.113,0a8.3,8.3,0,0,0-4,15.578l-.1,3.431L9.935,16.6c.059,0,.118.009.179.009a8.3,8.3,0,0,0,0-16.6ZM9.741,13.3a1.214,1.214,0,0,1-1.246-1.274,1.253,1.253,0,1,1,2.507,0A1.217,1.217,0,0,1,9.741,13.3Zm1.694-5.21a2.408,2.408,0,0,0-.713,1.752v.25H8.859l-.015-.363a3.082,3.082,0,0,1,.828-2.2,2.591,2.591,0,0,0,.812-1.457c0-.49-.323-.812-1.024-.839a2.627,2.627,0,0,0-1.384.42L7.6,4.121a4.806,4.806,0,0,1,2.338-.572c1.85,0,2.689,1.022,2.689,2.184A3.473,3.473,0,0,1,11.435,8.085Z" fill="#fff"/>
    </g>
  </g>
</svg>
