<svg xmlns="http://www.w3.org/2000/svg" width="30" height="30" viewBox="0 0 30 30">
  <g id="language" transform="translate(-17 -14.942)">
    <rect id="bg" width="30" height="30" rx="10" transform="translate(17 14.942)" fill="#c99200"/>
    <path id="Combined_Shape" data-name="Combined Shape" d="M1075.929,616.071a10,10,0,0,1,7.042-17.07h.058a10,10,0,1,1-7.1,17.07Zm5,.847a14.834,14.834,0,0,1-2.43-7.008h-3.634A8.189,8.189,0,0,0,1080.932,616.918Zm4.135,0a8.186,8.186,0,0,0,6.063-7.007H1087.5A14.784,14.784,0,0,1,1085.068,616.917Zm-2.068-.236a13.059,13.059,0,0,0,2.677-6.772h-5.351A13.1,13.1,0,0,0,1083,616.681Zm8.131-8.59a8.188,8.188,0,0,0-6.063-7.008,14.842,14.842,0,0,1,2.43,7.008Zm-5.457,0a13.1,13.1,0,0,0-2.675-6.773,13.057,13.057,0,0,0-2.677,6.773Zm-7.174,0a14.791,14.791,0,0,1,2.432-7.008,8.188,8.188,0,0,0-6.063,7.008Z" transform="translate(-1051 -579.058)" fill="#fff"/>
  </g>
</svg>
