<svg xmlns="http://www.w3.org/2000/svg" xmlns:xlink="http://www.w3.org/1999/xlink" width="276" height="94.893" viewBox="0 0 276 94.893">
  <defs>
    <linearGradient id="linear-gradient" y1="0.5" x2="1" y2="0.5" gradientUnits="objectBoundingBox">
      <stop offset="0" stop-color="#c38f3b"/>
      <stop offset="0.278" stop-color="#9e6a24"/>
      <stop offset="0.405" stop-color="#c48e3e"/>
      <stop offset="0.551" stop-color="#ebb258"/>
      <stop offset="0.627" stop-color="#fac163"/>
      <stop offset="0.717" stop-color="#e8b057"/>
      <stop offset="0.896" stop-color="#bb8538"/>
      <stop offset="1" stop-color="#9e6a24"/>
    </linearGradient>
  </defs>
  <g id="logo" transform="translate(-88 -284.857)">
    <path id="Path_2099" data-name="Path 2099" d="M363.337,319.222a1.115,1.115,0,0,0-1.2.169c-4.392,3.792-9.744,4.459-15.461,1.938-2.49-1.1-5.021.919-6.715,2.27-.365.291-.739.588-1.032.786-.018-.086-.034-.169-.049-.238a19.135,19.135,0,0,0-.89-3.134,2.112,2.112,0,0,0-1.355-1.283c-2.114-.678-5.942,1.578-10.752,4.741.686-.772,1.473-1.635,2.3-2.533.316-.283.628-.564.933-.841a1.108,1.108,0,0,0,.3-.482c.941-1.007,1.925-2.047,2.947-3.108a1.14,1.14,0,0,0,.11-1.475,1.127,1.127,0,0,0-.841-.453,1.112,1.112,0,0,0-.877.345c-.708.738-2.411,2.519-4.207,4.463a72.842,72.842,0,0,1-8.326,6.748,46.371,46.371,0,0,1,2.181-4.869c.445-.9.793-1.607.952-2.022a1.217,1.217,0,0,0-.333-1.447l.1-.211-.179.157c-.892-.608-1.327-.209-4.154,2.333-1.633,1.468-6.409,5.763-7.946,6.071.3-1.476,3.695-5.931,5.842-7.212,1.322-.791,2.078-.567,2.344-.429a1.156,1.156,0,0,0,1.281-.156,1.135,1.135,0,0,0,.37-.982,1.119,1.119,0,0,0-.582-.851c-.744-.395-2.324-.862-4.571.478a11.148,11.148,0,0,0-1.708,1.362c-.02.015-.046.014-.066.03-5.635,4.852-10.3,7.925-12.084,7.925h-.018c.075-.979,2.109-4.272,5.045-7.7a1.138,1.138,0,0,0,.026-1.475,1.111,1.111,0,0,0-.3-.254c1.664.612,3.781.86,5.124.076a1.111,1.111,0,0,0,.537-.79,1.134,1.134,0,0,0-1.674-1.163c-1.069.626-3.349-.117-5.126-1.134a1.127,1.127,0,0,0-1.511.372h0a1.13,1.13,0,0,0,.4,1.589,15.814,15.814,0,0,0,1.912.921c-.074-.017-.168-.015-.227-.024a1.126,1.126,0,0,0-.856.394c-.311.361-.626.738-.94,1.12a1.078,1.078,0,0,0-.233.093l-.361.278c-6.049,4.832-12.292,8.844-14.162,9.154.415-.949,2.174-3.408,6.4-7.425a1.323,1.323,0,0,0,.348-1.4,1.269,1.269,0,0,0-1.291-.843,33.576,33.576,0,0,1-6.071-.049c.221-.146.5-.323.864-.538.89-.539,1.382-.837,1.632-1.3a1.3,1.3,0,0,0,.126-.971l.13-.08h-.155a1.3,1.3,0,0,0-.156-.315c-.309-.444-.874-.83-2.917-.637a1.113,1.113,0,0,0-.774.412,1.139,1.139,0,0,0-.238.862,1.119,1.119,0,0,0,.3.634c-1.051.681-1.874,1.4-1.8,2.381a1.57,1.57,0,0,0,.387.856,73.06,73.06,0,0,1-8.349,6.77,46.371,46.371,0,0,1,2.181-4.869c.445-.9.793-1.607.952-2.022a1.216,1.216,0,0,0-.333-1.447l.1-.211-.179.157c-.883-.6-1.32-.211-4.154,2.333-1.632,1.468-6.408,5.763-7.945,6.071.215-1.063,2.037-3.66,3.841-5.514a1.059,1.059,0,0,0,.1-.106,10.451,10.451,0,0,1,1.9-1.591c1.322-.791,2.078-.567,2.344-.429a1.156,1.156,0,0,0,1.281-.156,1.129,1.129,0,0,0,.369-.984,1.112,1.112,0,0,0-.581-.849c-.744-.395-2.324-.862-4.571.478a13.342,13.342,0,0,0-2.271,1.906c-4.623,2.365-40.69,20.6-49.607,19.047-.826-.145-1.033-.46-1.117-.685-1.222-3.264,8.516-15.243,15.018-23.241,4.475-5.508,8.7-10.71,10.6-14.128.249-.452,1.012-1.826.023-2.7-1.038-.921-2.572-.936-14.042,6.871-6.9,4.7-15.382,10.871-23.607,16.856-7.546,5.49-15.87,11.546-20.4,14.495,1.823-2.026,4.479-4.761,6.928-7.282,8.954-9.227,21.219-21.862,22.87-28.51a2.114,2.114,0,0,0-.708-2.486c-1.329-.9-3.838-.967-18.245,8.642-8.694,5.8-19.153,13.417-28.4,20.154-5.068,3.691-10.243,7.46-14.095,10.147,1.3-1.2,2.759-2.518,4.252-3.868,10.064-9.107,25.273-22.87,28.169-30.908a3.465,3.465,0,0,0-.45-3.21c-3.244-4.791-20.172-8.513-51.749-11.378-20.94-1.9-41.2-2.714-45.048-2.858a1.145,1.145,0,0,0-.808.3,1.129,1.129,0,0,0,.721,1.959c2.344.088,23.527.91,44.935,2.851,39.9,3.618,48.5,8.066,50.079,10.394a1.225,1.225,0,0,1,.194,1.181c-2.7,7.507-17.66,21.041-27.557,30-8.959,8.108-10.217,9.358-9.777,10.648a1.228,1.228,0,0,0,.1.228l-.688.82.947-.508a1.521,1.521,0,0,0,.894.337c1.386,0,5.52-2.875,21.211-14.3,9.215-6.713,19.661-14.321,28.328-20.1,11.574-7.719,14.76-8.588,15.525-8.654-.005.024-.012.049-.018.075-1.5,6.054-13.523,18.438-22.3,27.48-8.725,8.989-10.231,10.7-9.652,12.066a1.347,1.347,0,0,0,.21.347l-.023.038.043-.017a1.408,1.408,0,0,0,1.076.452c1.661,0,8.118-4.584,24.92-16.807,7.967-5.8,16.205-11.79,22.914-16.375a93.341,93.341,0,0,1,10.845-6.752c-1.987,3.271-5.9,8.085-10.028,13.162-8.739,10.752-16.994,20.907-15.32,25.384a3.388,3.388,0,0,0,2.846,2.12,8.923,8.923,0,0,0,1.494.115c9.5,0,34.432-11.851,45.072-17.132a6,6,0,0,0-1.223,3.664,1.9,1.9,0,0,0,1.6,1.561c1.926.34,4.942-2.042,8.957-5.614-1.333,2.9-1.731,4.423-1.12,5.36a1.563,1.563,0,0,0,1.382.687h.008c1.762-.077,7.155-4.63,11.461-8.523a26.481,26.481,0,0,0,3.933.17c-5.871,5.935-5.485,7.588-5.354,8.15a1.776,1.776,0,0,0,1.25,1.313,2.213,2.213,0,0,0,.68.1c2.453,0,7.318-3.156,11.2-5.99a4.458,4.458,0,0,0-.571,3.251,2.011,2.011,0,0,0,1.761,1.275,3.067,3.067,0,0,0,.348.021c1.741,0,4.388-1.452,7.167-3.408a3.394,3.394,0,0,0-.224,1.649,1.9,1.9,0,0,0,1.6,1.561c1.93.34,4.943-2.042,8.957-5.614-1.334,2.9-1.731,4.422-1.122,5.358a1.561,1.561,0,0,0,1.383.689h.008a7.4,7.4,0,0,0,2.9-1.455,1.367,1.367,0,0,0,.164.464,1.1,1.1,0,0,0,.084.147l-.491.644.69-.419a1.244,1.244,0,0,0,.826.306l.163-.009c.713-.084,1.79-.783,4.387-2.5,2.518-1.668,8.415-5.565,9.718-5.167a17.017,17.017,0,0,1,.79,2.8c.191.922.355,1.719,1.105,2.106a1.958,1.958,0,0,0,1.734-.084,9.883,9.883,0,0,0,1.874-1.294c1.4-1.115,3.134-2.506,4.379-1.957,6.584,2.9,12.755,2.112,17.844-2.284a1.136,1.136,0,0,0,.391-.858A1.12,1.12,0,0,0,363.337,319.222Z" transform="translate(0)" fill="url(#linear-gradient)"/>
    <path id="Path_2100" data-name="Path 2100" d="M377.633,392.6l.271-.311-.4.137a1.268,1.268,0,0,0-.311-.263c-.448-.27-1.807-1.08-8.161,4.044A68.809,68.809,0,0,0,357.765,407.8a42.843,42.843,0,0,0-2.739,4.118c-5.437,4.632-9.911,7.56-11.651,7.56h-.02c.067-.966,2.025-4.17,5.047-7.7a1.138,1.138,0,0,0,.026-1.475,1.112,1.112,0,0,0-.3-.254c1.664.612,3.781.861,5.124.075a1.111,1.111,0,0,0,.537-.79,1.131,1.131,0,0,0-.214-.857l-.071-.086a1.127,1.127,0,0,0-1.39-.221c-1.074.627-3.349-.119-5.126-1.135a1.127,1.127,0,0,0-1.654,1.249,1.138,1.138,0,0,0,.54.714,15.818,15.818,0,0,0,1.912.92c-.076-.016-.2-.01-.227-.024a1.125,1.125,0,0,0-.856.394c-.306.355-.615.725-.923,1.1a1.085,1.085,0,0,0-.315.132,118.03,118.03,0,0,1-10.064,7.4c.738-.993,1.675-2.156,2.359-3a29.858,29.858,0,0,0,3.364-4.621,1.328,1.328,0,0,0-.151-1.461l.095-.147-.158.08c-.026-.026-.052-.05-.08-.073-.986-.826-1.749-.526-11.28,5.884-.923.62-1.825,1.228-2.669,1.79,1.027-1.174,2.221-2.506,3.463-3.879.08-.081.186-.182.262-.259a1.071,1.071,0,0,0,.078-.117c2.54-2.8,5.268-5.754,7.331-7.988,4.646-5.032,6.435-6.986,6.79-7.538a1.518,1.518,0,0,0,.153-1.706l.169-.2-.25.088c-.025-.032-.048-.059-.069-.082-.532-.573-1.366-.712-3.737.479a1.16,1.16,0,0,0-.57,1.439,1.135,1.135,0,0,0,.646.639c.031.013.064.023.095.033-1.307,1.445-3.173,3.465-4.888,5.321-3.166,3.428-5.68,6.167-7.684,8.379a66.7,66.7,0,0,1-6.777,5.942c-2.312,1.757-3.685,2.116-4.2,1.867-.358-.174-.587-.867-.608-1.854a5.717,5.717,0,0,0-.889-3.061c2.272-.625,4.756-1.655,5.5-3.255a2.5,2.5,0,0,0-.146-2.36,1.9,1.9,0,0,0-1.358-.921c-1.5-.249-3.935,1.081-7.241,3.574,1.414-1.576,2.868-3.19,4.244-4.721l.217-.241c7.455-8.283,10.766-11.984,11.191-12.667a1.427,1.427,0,0,0-.016-1.759c-.56-.668-1.613-.852-4.957.411a1.152,1.152,0,0,0-.723,1.354,1.13,1.13,0,0,0,1.486.774c.3-.113.608-.219.9-.315-2,2.288-5.759,6.47-9.427,10.545l-.129.146c-2.305,2.56-4.653,5.169-6.734,7.5a69.967,69.967,0,0,1-7.906,6.369,46.262,46.262,0,0,1,2.181-4.87c.445-.9.793-1.607.952-2.022a1.227,1.227,0,0,0-.328-1.441l.118-.232-.2.172c-.876-.605-1.319-.214-4.165,2.345-1.631,1.466-6.4,5.751-7.934,6.059.3-1.476,3.7-5.931,5.842-7.213,1.329-.794,2.081-.563,2.344-.429a1.158,1.158,0,0,0,1.281-.155,1.135,1.135,0,0,0,.37-.985,1.109,1.109,0,0,0-.582-.848c-.741-.4-2.324-.863-4.571.477a10.142,10.142,0,0,0-1.476,1.145,1.132,1.132,0,0,0-.551.243c-1.207,1.019-3.06,2.537-5.019,3.976-5.53,4.062-6.85,3.808-6.852,3.864-.02-.048-.171-.5.338-2.019a39.078,39.078,0,0,1,4.428-8.64c3.95-3.321,10.6-9.209,11.391-11.813.524-1.748-.488-2.215-.809-2.315-.764-.242-1.659.034-3.812,2.12a56.35,56.35,0,0,0-4.727,5.35c-.893,1.131-2.252,2.926-3.684,5.088q-1.3,1.093-2.71,2.231a2.559,2.559,0,0,0-1.155-.663c-2.434-.683-5.746.378-8.659,2.609a1.109,1.109,0,0,0-.475.209c-10.367,8.638-19.44,15.211-21.162,15.046-.869-1.765.7-9.517,6.671-17.432.429-.57.866-1.126,1.306-1.67.58-.417,4.434-3.192,8.225-6.082,8.772-6.689,8.741-7.461,8.711-8.209a1.281,1.281,0,0,0-.177-.6l.269-.31-.394.136a1.28,1.28,0,0,0-.312-.263c-.448-.267-1.8-1.08-8.161,4.044a68.058,68.058,0,0,0-5.92,5.408,1.127,1.127,0,0,0-.9.473c-5.193,7.589-14.336,12.774-24.66,14.053,4.057-5.2,9.358-11.447,13.732-16.6,5.219-6.153,9.726-11.468,10.874-13.472.575-.99.328-1.6.046-1.927l.084-.133-.143.069c-.025-.026-.049-.048-.074-.069-.786-.682-1.26-1.087-9.637,5.037-4.566,3.337-10.356,7.8-15.955,12.11-1.725,1.328-3.419,2.633-5.044,3.879a17.569,17.569,0,0,0-5.094-6.114c-5.7-4.314-10.845-4.973-13.765-1.759-2.84,3.123-2.621,9.78,2.654,15.514a14.192,14.192,0,0,0,2.657,2.228c-8.074,5.124-19,10.395-26.417,10.395a11.711,11.711,0,0,1-3.466-.473,6.5,6.5,0,0,1-4.329-4.164c-3.942-10.7,15.8-19.96,18.063-20.982a1.13,1.13,0,0,0-.928-2.059,60.76,60.76,0,0,0-11.066,6.5c-7.449,5.66-10.279,11.652-8.187,17.328a8.651,8.651,0,0,0,5.774,5.537c10.257,3.2,28.48-8.029,32.787-10.828a29.007,29.007,0,0,0,11.257,2.523c-.089.9-.219,1.79-.386,2.661-1.357,2.112-2.023,3.562-2.094,4.565-.03.424-.117,1.713.967,2a1.259,1.259,0,0,0,.327.045c.895,0,1.358-.938,1.56-1.348a20.317,20.317,0,0,0,1.353-4.381c.676-1.025,1.542-2.241,2.575-3.622l.337-.024a40.513,40.513,0,0,0,18.805-6.3c-3.51,6.113-5.3,12.572-3.952,15.315a2.3,2.3,0,0,0,2.093,1.373c2.355,0,9.588-5.284,16.057-10.41-.159.4-.306.814-.431,1.235a1.383,1.383,0,0,0,.9,1.826c.565.17,1.34.4,6.3-2.967q.623-.422,1.288-.892c-1.864,2.247-1.9,3.165-1.707,3.713a1.336,1.336,0,0,0,.227.406l-.559.98.9-.682a1.459,1.459,0,0,0,.562.2l.164.012c.931,0,2.452-1.281,4.521-3.806.187-.229.4-.491.618-.779-.254,1.129-.343,2.642.808,3.406,1.058.7,2.938.829,8.678-3.255a3.848,3.848,0,0,0-.375,2.041,1.9,1.9,0,0,0,1.6,1.56c1.931.346,4.942-2.042,8.957-5.613-1.334,2.9-1.731,4.423-1.12,5.359a1.563,1.563,0,0,0,1.381.688h.009a4.534,4.534,0,0,0,1.761-.723.962.962,0,0,0,.263.741l.532.7.81-.307c.379-.146.809-.5,3.065-2.446,1.284-1.11,3.63-3.136,5.978-4.994l.713.324a2.894,2.894,0,0,1,1.395,2.7c.053,2.448,1.053,3.438,1.882,3.838,1.2.576,2.688.328,4.6-.784a.924.924,0,0,0,.217.909l-.4.511.548-.329a1.2,1.2,0,0,0,.84.339,1.582,1.582,0,0,0,.626-.14,82.2,82.2,0,0,0,7.675-4.872c1.854-1.249,4.138-2.786,6-3.969-.27.337-.546.68-.819,1.02-3.382,4.192-4.515,5.7-3.81,6.923a1.5,1.5,0,0,0,1.636.667c1.425-.226,4.615-2.352,8-4.874a4.439,4.439,0,0,0-.563,3.233,2.013,2.013,0,0,0,1.761,1.275,3.192,3.192,0,0,0,.348.021c2.156,0,5.7-2.226,9.167-4.881-1.917,4.521-2.677,8.667-1.665,10.723a2.3,2.3,0,0,0,2.093,1.373c3.211,0,15.5-9.825,22.541-15.68h0a1.129,1.129,0,0,0-1.447-1.734c-10.367,8.638-19.452,15.211-21.162,15.046-.711-1.443.21-6.888,3.833-13.152l.2-.175a1.126,1.126,0,0,0,.373-.785c.673-1.094,1.419-2.2,2.261-3.321.429-.57.866-1.126,1.306-1.67.58-.417,4.434-3.192,8.225-6.082,8.777-6.692,8.742-7.463,8.71-8.205A1.271,1.271,0,0,0,377.633,392.6Zm-57.967,17.966a.183.183,0,0,1-.023.1h0c-.3.642-1.973,1.407-3.818,1.954C318.1,411.034,319.152,410.627,319.666,410.566Zm-42.447,6.062c.836-.609,1.708-1.258,2.6-1.939a29.093,29.093,0,0,1-1.765,2.408,1.173,1.173,0,0,0-.151-.169A1.118,1.118,0,0,0,277.219,416.628Zm2.951-5.853a3.739,3.739,0,0,1,.892.1,103.066,103.066,0,0,1-11.127,7.9C272.211,413.608,277.239,410.775,280.17,410.775Zm-64.7.367c-4.4-4.784-4.8-10.094-2.644-12.465a3.991,3.991,0,0,1,3.1-1.274c2.133,0,4.773,1.145,7.632,3.314a15.384,15.384,0,0,1,4.63,5.714c-3.981,3.041-6.6,4.991-8.46,6.3q-.557.391-1.173.807A12.641,12.641,0,0,1,215.469,411.142Zm13.579-2.529a22.545,22.545,0,0,1,1.033,6.193q.027.823.01,1.61a28.12,28.12,0,0,1-9.179-1.762l.11-.078C222.826,413.309,225.319,411.457,229.049,408.613Zm3.3,7.814c.015-.653.01-1.3-.017-1.94a24.237,24.237,0,0,0-1.391-7.319c1.76-1.35,3.615-2.779,5.55-4.268,6.767-5.211,15.538-11.965,20.27-15.167-2.064,2.621-5.307,6.441-8.681,10.418-5.469,6.445-11.125,13.155-15,18.249C232.832,416.411,232.588,416.421,232.347,416.427Z" transform="translate(-45.566 -49.209)" fill="url(#linear-gradient)"/>
  </g>
</svg>
