<svg xmlns="http://www.w3.org/2000/svg"
    xmlns:xlink="http://www.w3.org/1999/xlink" width="68" height="68" viewBox="0 0 68 68">
  <defs>
    <filter id="Ellipse_21" x="0" y="0" width="68" height="68" filterUnits="userSpaceOnUse">
      <feOffset dy="3" input="SourceAlpha"/>
      <feGaussianBlur stdDeviation="3" result="blur"/>
      <feFlood flood-opacity="0.161"/>
      <feComposite operator="in" in2="blur"/>
      <feComposite in="SourceGraphic"/>
    </filter>
  </defs>
  <g id="mail-contact" transform="translate(-24 -449)">
    <g transform="matrix(1, 0, 0, 1, 24, 449)" filter="url(#Ellipse_21)">
      <circle id="Ellipse_21-2" data-name="Ellipse 21" cx="25" cy="25" r="25" transform="translate(9 6)" fill="#c99200"/>
    </g>
    <path id="email" d="M695.333,277A3.337,3.337,0,0,1,692,273.667V260.351q0-.023,0-.046A3.337,3.337,0,0,1,695.333,257h17.778a3.338,3.338,0,0,1,3.333,3.306c0,.015,0,.03,0,.046v13.316A3.338,3.338,0,0,1,713.111,277Zm-1.111-3.334a1.113,1.113,0,0,0,1.112,1.112h17.778a1.112,1.112,0,0,0,1.111-1.112v-11.2l-9.363,6.554a1.113,1.113,0,0,1-1.274,0l-9.363-6.554Z" transform="translate(-646 213)" fill="#fff"/>
  </g>
</svg>
