<svg xmlns="http://www.w3.org/2000/svg" width="16.365" height="18" viewBox="0 0 16.365 18">
  <path id="password" d="M619.455,271A2.458,2.458,0,0,1,617,268.546v-5.728a2.458,2.458,0,0,1,2.455-2.454h.818v-2.454a4.909,4.909,0,1,1,9.818,0v2.454h.818a2.458,2.458,0,0,1,2.455,2.454v5.728A2.458,2.458,0,0,1,630.909,271Zm-.818-8.182v5.728a.819.819,0,0,0,.818.818h11.454a.819.819,0,0,0,.818-.818v-5.728a.819.819,0,0,0-.818-.818H619.455A.819.819,0,0,0,618.637,262.818Zm9.818-2.454v-2.454a3.273,3.273,0,1,0-6.546,0v2.454Z" transform="translate(-617 -253)" fill="#5b5b5b"/>
</svg>
