<svg xmlns="http://www.w3.org/2000/svg" width="30" height="30" viewBox="0 0 30 30">
  <g id="password-settings" transform="translate(-17 -14.942)">
    <rect id="bg" width="30" height="30" rx="10" transform="translate(17 14.942)" fill="#c99200"/>
    <path id="password" d="M619.455,271A2.455,2.455,0,0,1,617,268.546v-5.728a2.455,2.455,0,0,1,2.455-2.454h.818v-2.454a4.909,4.909,0,1,1,9.818,0v2.454h.818a2.454,2.454,0,0,1,2.454,2.454v5.728A2.454,2.454,0,0,1,630.909,271Zm9-10.636v-2.454a3.273,3.273,0,1,0-6.546,0v2.454Z" transform="translate(-593 -232.058)" fill="#fff"/>
  </g>
</svg>
