<svg xmlns="http://www.w3.org/2000/svg" xmlns:xlink="http://www.w3.org/1999/xlink" width="68" height="68" viewBox="0 0 68 68">
  <defs>
    <filter id="Ellipse_22" x="0" y="0" width="68" height="68" filterUnits="userSpaceOnUse">
      <feOffset dy="3" input="SourceAlpha"/>
      <feGaussianBlur stdDeviation="3" result="blur"/>
      <feFlood flood-opacity="0.161"/>
      <feComposite operator="in" in2="blur"/>
      <feComposite in="SourceGraphic"/>
    </filter>
  </defs>
  <g id="phone-contact" transform="translate(-24 -519)">
    <g transform="matrix(1, 0, 0, 1, 24, 519)" filter="url(#Ellipse_22)">
      <circle id="Ellipse_22-2" data-name="Ellipse 22" cx="25" cy="25" r="25" transform="translate(9 6)" fill="#c99200"/>
    </g>
    <path id="Op_component_3" data-name="Op component 3" d="M1524.951,613.531a2.736,2.736,0,0,0-2.352-2.765,10.813,10.813,0,0,1-2.37-.59,2.733,2.733,0,0,0-2.883.616l-.657.658a13.677,13.677,0,0,1-4.18-4.183l.654-.654a2.739,2.739,0,0,0,.619-2.89,10.815,10.815,0,0,1-.588-2.361,2.737,2.737,0,0,0-2.736-2.362h-2.726a2.736,2.736,0,0,0-2.722,2.983,18.981,18.981,0,0,0,2.941,8.322,18.68,18.68,0,0,0,5.745,5.747,18.931,18.931,0,0,0,8.257,2.937,2.735,2.735,0,0,0,3-2.735Z" transform="translate(-1457 -59)" fill="#fff"/>
  </g>
</svg>
