<svg xmlns="http://www.w3.org/2000/svg" width="30" height="30" viewBox="0 0 30 30">
  <g id="privacy" transform="translate(-17 -14.942)">
    <rect id="bg" width="30" height="30" rx="10" transform="translate(17 14.942)" fill="#c99200"/>
    <path id="Op_component_1" data-name="Op component 1" d="M1303.582,160.208a20.009,20.009,0,0,0,2.559-1.933c2.4-2.144,3.859-4.576,3.859-7.275v-7.273a.905.905,0,0,0-.673-.882l-7.111-1.818a.87.87,0,0,0-.431,0l-7.111,1.818a.906.906,0,0,0-.673.882V151c0,2.7,1.463,5.131,3.859,7.275a20,20,0,0,0,2.559,1.933c.525.336.939.57,1.185.7a.872.872,0,0,0,.8,0C1302.644,160.778,1303.057,160.544,1303.582,160.208Z" transform="translate(-1270 -121.058)" fill="#fff"/>
  </g>
</svg>
